<svg xmlns="http://www.w3.org/2000/svg" width="1200" height="630" viewBox="0 0 1200 630">
  <defs>
    <linearGradient id="bg" x1="0.05" y1="0" x2="0.95" y2="1">
      <stop offset="0" stop-color="#FFF8F3" />
      <stop offset="0.55" stop-color="#FFEFEE" />
      <stop offset="1" stop-color="#F2B8B5" />
    </linearGradient>
    <filter id="blur" x="-20%" y="-20%" width="140%" height="140%">
      <feGaussianBlur stdDeviation="46" />
    </filter>
  </defs>

  <rect width="1200" height="630" fill="url(#bg)" />
  <circle cx="280" cy="170" r="240" fill="#F2B8B5" opacity="0.24" filter="url(#blur)" />
  <circle cx="980" cy="520" r="280" fill="#F2B8B5" opacity="0.18" filter="url(#blur)" />

  <g transform="translate(90,110)">
    <rect x="0" y="0" width="1020" height="410" rx="44" fill="rgba(255,255,255,0.62)" stroke="rgba(58,46,42,0.10)" />
    <g transform="translate(56,56)">
      <g transform="translate(0,0)">
        <rect x="0" y="0" width="84" height="84" rx="26" fill="#FFEFEE" stroke="rgba(58,46,42,0.12)" />
        <path
          d="M12 30c2-8 10-14 18-14 8 0 13 5 14 11l-1 9c3-7 10-19 22-19 9 0 16 7 16 16 0 7-2 12-6 19-6 12-12 24-25 24-9 0-16-7-17-17l0-3c-3 7-9 20-22 20-9 0-18-8-18-18 0-9 3-19 7-29 4-9 7-19 12-19z"
          fill="#3A2E2A"
        />
      </g>
      <text x="104" y="56" font-family="Inria Sans, ui-sans-serif, system-ui, -apple-system, Segoe UI, Roboto, Helvetica, Arial" font-size="44" font-weight="700" fill="#3A2E2A">Win‑Win Apps</text>
      <text x="0" y="146" font-family="Inria Serif, Georgia, serif" font-size="60" font-weight="400" fill="#3A2E2A">Shopify apps that create win‑wins.</text>
      <text x="0" y="206" font-family="Inria Sans, ui-sans-serif, system-ui, -apple-system, Segoe UI, Roboto, Helvetica, Arial" font-size="28" font-weight="400" fill="rgba(58,46,42,0.72)">
        Help merchants grow while improving customer experience.
      </text>
    </g>
  </g>
</svg>


