<svg xmlns="http://www.w3.org/2000/svg" width="1024" height="1024" viewBox="0 0 1024 1024" role="img" aria-label="Win‑Win Apps">
  <defs>
    <linearGradient id="bg" x1="0.05" y1="0" x2="0.95" y2="1">
      <stop offset="0" stop-color="#FFEFEE" />
      <stop offset="0.7" stop-color="#F7C9C7" />
      <stop offset="1" stop-color="#F2B8B5" />
    </linearGradient>
    <linearGradient id="edge" x1="0.2" y1="0.2" x2="1" y2="0.7">
      <stop offset="0" stop-color="#000" stop-opacity="0" />
      <stop offset="1" stop-color="#000" stop-opacity="0.08" />
    </linearGradient>
  </defs>

  <rect x="56" y="56" width="912" height="912" rx="220" fill="url(#bg)" />
  <rect x="56" y="56" width="912" height="912" rx="220" fill="url(#edge)" />

  <!-- Mark -->
  <g transform="translate(0,12)">
    <path
      d="M266 382c20-86 96-150 192-150 85 0 141 55 156 118l-10 94c33-84 109-212 246-212 108 0 180 80 180 198 0 82-30 154-73 245-70 149-146 305-318 305-118 0-198-82-211-209l0-42c-30 82-104 251-262 251-117 0-208-92-208-210 0-104 41-224 88-355 45-125 88-239 142-233z"
      fill="#3A2E2A"
    />
  </g>

  <!-- Wordmark -->
  <text
    x="512"
    y="870"
    text-anchor="middle"
    font-family="Inria Sans, ui-sans-serif, system-ui, -apple-system, Segoe UI, Roboto, Helvetica, Arial"
    font-size="58"
    letter-spacing="2"
    fill="#3A2E2A"
  >
    WIN‑WIN APPS
  </text>
</svg>


