<svg xmlns="http://www.w3.org/2000/svg" width="256" height="256" viewBox="0 0 128 128" role="img" aria-label="Win‑Win Apps">
  <defs>
    <linearGradient id="bg" x1="0.05" y1="0" x2="0.95" y2="1">
      <stop offset="0" stop-color="#FFEFEE" />
      <stop offset="0.7" stop-color="#F7C9C7" />
      <stop offset="1" stop-color="#F2B8B5" />
    </linearGradient>
    <linearGradient id="edge" x1="0.2" y1="0.2" x2="1" y2="0.7">
      <stop offset="0" stop-color="#000" stop-opacity="0" />
      <stop offset="1" stop-color="#000" stop-opacity="0.08" />
    </linearGradient>
  </defs>
  <rect x="10" y="10" width="108" height="108" rx="30" fill="url(#bg)" />
  <rect x="10" y="10" width="108" height="108" rx="30" fill="url(#edge)" />
  <path
    d="M30 44c2-9 10-16 20-16 9 0 15 6 16 13l-1 10c3-9 11-23 25-23 11 0 18 8 18 20 0 8-3 15-7 23-7 14-14 30-30 30-11 0-18-8-19-19l0-4c-3 8-10 23-25 23-11 0-20-9-20-20 0-10 4-22 8-34 4-11 8-21 15-21z"
    fill="#3A2E2A"
  />
</svg>


